<svg width="64" height="64" viewBox="0 0 64 64" fill="none" xmlns="http://www.w3.org/2000/svg">
<path fill-rule="evenodd" clip-rule="evenodd" d="M28.5319 4.63037C24.7875 4.93737 20.249 6.47275 16.508 8.69812C10.3249 12.376 5.64338 18.8535 3.86775 26.1875C2.89225 30.2165 2.87738 35.4353 3.83075 39.125C5.676 46.2666 9.51275 51.8395 15.375 55.8929C18.6914 58.186 23.1948 59.9328 27.4795 60.588C29.5529 60.905 33.7241 60.8662 35.7843 60.5106C38.9818 59.9589 41.289 59.2179 44.1875 57.812C46.8663 56.5126 49.4444 54.7485 51.4788 52.8226C52.9193 51.4589 53.3751 50.8301 53.3745 50.2075C53.3739 49.4655 53.0156 48.9494 52.316 48.6821C51.7405 48.4624 51.7203 48.4638 49.8366 48.8476C47.4745 49.3291 46.4054 49.4166 44.8125 49.2591C40.4735 48.83 36.6884 46.9204 33.8881 43.7476C30.8714 40.3297 29.4793 36.3987 29.6614 31.8125C29.8269 27.6481 31.5541 23.9051 34.7985 20.6805C37.6229 17.8733 41.3873 16.2414 45.75 15.9329C46.9975 15.8446 49.1384 16.0721 50.5 16.4375C50.8781 16.539 51.4604 16.6228 51.7938 16.6235C52.3148 16.6248 52.4584 16.5666 52.8151 16.2099C53.7383 15.2868 53.5035 14.391 51.949 12.9039C48.2323 9.34813 43.9208 6.878 39.156 5.57438C35.6231 4.60775 32.3523 4.31712 28.5319 4.63037ZM25.2843 24.4426C23.934 24.8939 23.0353 25.4482 22.0624 26.4296C19.2284 29.2887 19.2466 33.783 22.1033 36.5294C23.1506 37.5364 25.25 38.7923 25.25 38.4119C25.25 38.3541 25.1051 37.6331 24.9281 36.8097C24.2841 33.8137 24.4073 30.2309 25.2481 27.5063C25.5566 26.5063 26.2328 24.846 26.5869 24.2188C26.6808 24.0524 26.2091 24.1335 25.2843 24.4426Z" fill="black"/>
</svg>
