<svg width="64" height="64" viewBox="0 0 64 64" fill="none" xmlns="http://www.w3.org/2000/svg">
<path fill-rule="evenodd" clip-rule="evenodd" d="M28.75 9.125V14.125H30.4802H32.2105L32.2982 9.247C32.3465 6.564 32.3521 4.314 32.3106 4.247C32.2675 4.17713 31.4907 4.125 30.4926 4.125H28.75V9.125ZM49.0734 12.3567C48.5981 12.8824 47.0513 14.5176 45.6359 15.9906C44.2205 17.4636 43.0625 18.716 43.0625 18.7738C43.0625 18.9334 45.1677 21.2291 45.3242 21.2402C45.3995 21.2456 45.8149 20.8704 46.2475 20.4062C46.6801 19.9421 48.2682 18.307 49.7769 16.7725L52.5197 13.9825L51.856 13.2725C51.491 12.882 50.9429 12.2952 50.638 11.9688C50.333 11.6423 50.0508 11.3809 50.0105 11.388C49.9704 11.3951 49.5486 11.8311 49.0734 12.3567ZM9.75737 12.7486L8.60525 13.9972L11.5356 16.9674C13.1474 18.601 14.7531 20.2469 15.104 20.625L15.7421 21.3125L16.9304 20.125C17.584 19.4719 18.1201 18.8877 18.1219 18.827C18.1236 18.7662 16.764 17.3037 15.1005 15.577C13.4371 13.8502 11.8761 12.2284 11.6318 11.9729C11.3874 11.7172 11.125 11.5064 11.0485 11.5041C10.9721 11.5019 10.3911 12.0619 9.75737 12.7486ZM28.3232 18.4379C23.2414 19.3381 19.0304 22.9724 17.461 27.8125C16.979 29.299 16.8418 30.2533 16.8411 32.125C16.8405 34.0911 17.0531 35.2671 17.7113 36.9375C19.9939 42.731 25.6594 46.2364 31.7755 45.6391C33.6465 45.4565 34.8759 45.1339 36.3343 44.4431C37.9706 43.6679 39.0454 42.9239 40.2335 41.7438C44.3839 37.6213 45.4283 31.2117 42.8133 25.9129C40.9376 22.1122 37.4648 19.4491 33.2199 18.5561C31.925 18.2838 29.5209 18.2258 28.3232 18.4379ZM48.75 32V33.8778L53.9688 33.8451L59.1875 33.8125V32V30.1875L53.9688 30.1549L48.75 30.1222V32ZM1.875 32V33.75H7.0625H12.25V32V30.25H7.0625H1.875V32ZM13.1195 45.4721C11.6433 46.9656 10.0152 48.6236 9.50175 49.1566L8.56812 50.1256L9.75037 51.3129C10.4005 51.9657 10.9808 52.5 11.0398 52.5C11.1324 52.5 12.9996 50.6078 17.1098 46.3488L18.1605 45.26L17.2804 44.2863C16.7964 43.7506 16.2661 43.1875 16.102 43.0346L15.8036 42.7567L13.1195 45.4721ZM44.1312 43.9999L42.978 45.2497L44.1415 46.4686C44.7814 47.139 46.3862 48.7959 47.7077 50.1505L50.1104 52.6134L50.983 51.713C51.463 51.2178 51.9998 50.6445 52.1759 50.4393L52.4963 50.0659L51.7794 49.3189C51.3851 48.9081 50.1281 47.6136 48.986 46.4422C47.844 45.2709 46.5841 43.961 46.1864 43.5312C45.7886 43.1016 45.423 42.75 45.3739 42.75C45.3247 42.75 44.7656 43.3125 44.1312 43.9999ZM28.6549 54.8438L28.6875 59.8125L30.4688 59.8471L32.25 59.8819V54.8784V49.875H30.4361H28.6221L28.6549 54.8438Z" fill="black"/>
</svg>
